0
SECTION
2
HEADER
9
$INSUNITS
70
4
9
$ACADVER
1
AC1014
9
$HANDSEED
5
FFFF
0
ENDSEC
0
SECTION
2
TABLES
0
TABLE
2
VPORT
5
8
100
AcDbSymbolTable
0
ENDTAB
0
TABLE
2
LTYPE
5
5
100
AcDbSymbolTable
0
LTYPE
5
14
100
AcDbSymbolTableRecord
100
AcDbLinetypeTableRecord
2
BYBLOCK
70
0
0
LTYPE
5
15
100
AcDbSymbolTableRecord
100
AcDbLinetypeTableRecord
2
BYLAYER
70
0
0
ENDTAB
0
TABLE
2
LAYER
5
2
100
AcDbSymbolTable
70
2
0
LAYER
5
50
100
AcDbSymbolTableRecord
100
AcDbLayerTableRecord
2
0
70
0
6
CONTINUOUS
0
ENDTAB
0
TABLE
2
STYLE
5
3
100
AcDbSymbolTable
70
1
0
STYLE
5
11
100
AcDbSymbolTableRecord
100
AcDbTextStyleTableRecord
2
STANDARD
70
0
0
ENDTAB
0
TABLE
2
VIEW
5
6
100
AcDbSymbolTable
70
0
0
ENDTAB
0
TABLE
2
UCS
5
7
100
AcDbSymbolTable
70
0
0
ENDTAB
0
TABLE
2
APPID
5
9
100
AcDbSymbolTable
70
2
0
APPID
5
12
100
AcDbSymbolTableRecord
100
AcDbRegAppTableRecord
2
ACAD
70
0
0
ENDTAB
0
TABLE
2
DIMSTYLE
5
A
100
AcDbSymbolTable
70
1
0
ENDTAB
0
TABLE
2
BLOCK_RECORD
5
1
100
AcDbSymbolTable
70
1
0
BLOCK_RECORD
5
1F
100
AcDbSymbolTableRecord
100
AcDbBlockTableRecord
2
*MODEL_SPACE
0
BLOCK_RECORD
5
1B
100
AcDbSymbolTableRecord
100
AcDbBlockTableRecord
2
*PAPER_SPACE
0
ENDTAB
0
ENDSEC
0
SECTION
2
BLOCKS
0
BLOCK
5
20
100
AcDbEntity
100
AcDbBlockBegin
2
*MODEL_SPACE
0
ENDBLK
5
21
100
AcDbEntity
100
AcDbBlockEnd
0
BLOCK
5
1C
100
AcDbEntity
100
AcDbBlockBegin
2
*PAPER_SPACE
0
ENDBLK
5
1D
100
AcDbEntity
100
AcDbBlockEnd
0
ENDSEC
0
SECTION
2
ENTITIES
0
LWPOLYLINE
5
100
100
AcDbEntity
8
OUTER_PROFILES
100
AcDbPolyline
90
4
70
1
43
0.0
10
378.77672322442498
20
8.8817841970012523e-15
10
0
20
0
10
0
20
76.200000000000003
10
378.77672322442498
20
76.200000000000003
0
CIRCLE
5
101
100
AcDbEntity
8
INTERIOR_PROFILES
100
AcDbCircle
10
-234.28836351956122
20
67.20000171363354
30
0
40
1.4000000000000057
210
0
220
0
230
-1
0
CIRCLE
5
102
100
AcDbEntity
8
INTERIOR_PROFILES
100
AcDbCircle
10
-144.44999999999996
20
38.100000000000009
30
0
40
5.3999999999999915
210
0
220
0
230
-1
0
CIRCLE
5
103
100
AcDbEntity
8
INTERIOR_PROFILES
100
AcDbCircle
10
-234.28836351956122
20
8.9999982863664396
30
0
40
1.4000000000000057
210
0
220
0
230
-1
0
CIRCLE
5
104
100
AcDbEntity
8
INTERIOR_PROFILES
100
AcDbCircle
10
-291.93836351956122
20
8.9999982863664396
30
0
40
1.4000000000000057
210
0
220
0
230
-1
0
CIRCLE
5
105
100
AcDbEntity
8
INTERIOR_PROFILES
100
AcDbCircle
10
-291.93836351956122
20
67.20000171363354
30
0
40
1.4000000000000057
210
0
220
0
230
-1
0
CIRCLE
5
106
100
AcDbEntity
8
INTERIOR_PROFILES
100
AcDbCircle
10
-261.93838317249435
20
38.099977987536832
30
0
40
3.9999999999999858
210
0
220
0
230
-1
0
CIRCLE
5
107
100
AcDbEntity
8
INTERIOR_PROFILES
100
AcDbCircle
10
-153.80000190734873
20
67.200001713633554
30
0
40
1.4000000000000057
210
0
220
0
230
-1
0
CIRCLE
5
108
100
AcDbEntity
8
INTERIOR_PROFILES
100
AcDbCircle
10
-375.60172322442497
20
56.200000000000053
30
0
40
1.4000000000000057
210
0
220
0
230
-1
0
CIRCLE
5
109
100
AcDbEntity
8
INTERIOR_PROFILES
100
AcDbCircle
10
-375.60172322442497
20
20.000000000000053
30
0
40
1.4000000000000057
210
0
220
0
230
-1
0
CIRCLE
5
110
100
AcDbEntity
8
INTERIOR_PROFILES
100
AcDbCircle
10
-277.93838317249447
20
38.099977987536853
30
0
40
1.4000000000000057
210
0
220
0
230
-1
0
CIRCLE
5
111
100
AcDbEntity
8
INTERIOR_PROFILES
100
AcDbCircle
10
-3.1749999999999994
20
20.000000000000018
30
0
40
1.4000000000000001
210
0
220
0
230
-1
0
CIRCLE
5
112
100
AcDbEntity
8
INTERIOR_PROFILES
100
AcDbCircle
10
-153.80000190734873
20
8.9999982863664272
30
0
40
1.4000000000000057
210
0
220
0
230
-1
0
CIRCLE
5
113
100
AcDbEntity
8
INTERIOR_PROFILES
100
AcDbCircle
10
-3.1749999999999994
20
56.200000000000017
30
0
40
1.4000000000000001
210
0
220
0
230
-1
0
CIRCLE
5
114
100
AcDbEntity
8
INTERIOR_PROFILES
100
AcDbCircle
10
-245.93838317249438
20
38.099977987536811
30
0
40
1.4000000000000057
210
0
220
0
230
-1
0
LINE
5
115
100
AcDbEntity
8
BEND
100
AcDbLine
10
345.18588282137188
20
3.1086244689504383e-14
30
-2.4559973466943003e-13
11
345.18588282137188
21
76.200000000000017
31
-2.4393337731688825e-13
0
LINE
5
116
100
AcDbEntity
8
BEND
100
AcDbLine
10
315.35420201526568
20
76.200000000000003
30
-2.5330486505666843e-13
11
315.35420201526568
21
2.6645352591003757e-14
31
-2.5330486505666843e-13
0
LINE
5
117
100
AcDbEntity
8
BEND
100
AcDbLine
10
208.87252120915934
20
76.200000000000003
30
-4.9995496535027006e-13
11
208.87252120915934
21
2.6645352591003757e-14
31
-4.9995496535027006e-13
0
LINE
5
118
100
AcDbEntity
8
BEND
100
AcDbLine
10
179.0408404030531
20
3.1086244689504383e-14
30
-4.2713256066212906e-13
11
179.0408404030531
21
76.200000000000017
31
-4.3685708285166718e-13
0
LINE
5
119
100
AcDbEntity
8
BEND_EXTENT
100
AcDbLine
10
348.77672322442498
20
76.200000000000003
30
-2.4294936954658778e-13
11
348.77672322442498
21
2.6645352591003757e-14
31
-2.4294936954658778e-13
0
LINE
5
120
100
AcDbEntity
8
BEND_EXTENT
100
AcDbLine
10
341.59504241831877
20
8.8817841970012523e-15
30
-2.4515666380291562e-13
11
341.59504241831877
21
76.200000000000003
31
-2.4515666380291562e-13
0
LINE
5
121
100
AcDbEntity
8
BEND_EXTENT
100
AcDbLine
10
318.94504241831874
20
76.200000000000003
30
-2.530146484007716e-13
11
318.94504241831874
21
2.6645352591003757e-14
31
-2.530146484007716e-13
0
LINE
5
122
100
AcDbEntity
8
BEND_EXTENT
100
AcDbLine
10
311.76336161221246
20
8.8817841970012523e-15
30
-2.6021794626791259e-13
11
311.76336161221246
21
76.200000000000003
31
-2.6021794626791259e-13
0
LINE
5
123
100
AcDbEntity
8
BEND_EXTENT
100
AcDbLine
10
212.46336161221248
20
76.200000000000003
30
-4.8839107247059015e-13
11
212.46336161221248
21
2.6645352591003757e-14
31
-4.8839107247059015e-13
0
LINE
5
124
100
AcDbEntity
8
BEND_EXTENT
100
AcDbLine
10
205.28168080610624
20
8.8817841970012523e-15
30
-4.80051247992979e-13
11
205.28168080610624
21
76.200000000000003
31
-4.80051247992979e-13
0
LINE
5
125
100
AcDbEntity
8
BEND_EXTENT
100
AcDbLine
10
182.63168080610623
20
76.200000000000003
30
-4.4350031160582872e-13
11
182.63168080610623
21
2.6645352591003757e-14
31
-4.2573674321182622e-13
0
LINE
5
126
100
AcDbEntity
8
BEND_EXTENT
100
AcDbLine
10
175.44999999999993
20
8.8817841970012523e-15
30
-4.2489092415043477e-13
11
175.44999999999993
21
76.200000000000003
31
-4.2489092415043477e-13
0
ENDSEC
0
SECTION
2
OBJECTS
0
DICTIONARY
5
C
100
AcDbDictionary
3
ACAD_GROUP
350
D
3
ACAD_MLINESTYLE
350
17
0
DICTIONARY
5
D
100
AcDbDictionary
0
DICTIONARY
5
1A
330
C
100
AcDbDictionary
0
DICTIONARY
5
17
100
AcDbDictionary
0
ENDSEC
0
EOF
